HIERARCHY
ROOT hip
{
	OFFSET 0.000000 0.000000 0.000000
	CHANNELS 6 Xposition Yposition Zposition Zrotation Yrotation Xrotation 
	JOINT lhipjoint
	{
		OFFSET 0.000000 0.000000 0.000000
		CHANNELS 3 Zrotation Yrotation Xrotation
		JOINT lfemur
		{
			OFFSET 1.363060 -1.794630 0.839290
			CHANNELS 3 Zrotation Yrotation Xrotation
			JOINT ltibia
			{
				OFFSET 2.448110 -6.726130 0.000000
				CHANNELS 3 Zrotation Yrotation Xrotation
				JOINT lfoot
				{
					OFFSET 2.562200 -7.039590 0.000000
					CHANNELS 3 Zrotation Yrotation Xrotation
					JOINT ltoes
					{
						OFFSET 0.157640 -0.433110 2.322550
						CHANNELS 3 Zrotation Yrotation Xrotation
						End Site
						{
							OFFSET 0.000000 0.000000 0.000000
						}
					}
				}
			}
		}
	}
	JOINT rhipjoint
	{
		OFFSET 0.000000 0.000000 0.000000
		CHANNELS 3 Zrotation Yrotation Xrotation
		JOINT rfemur
		{
			OFFSET -1.305520 -1.794630 0.839290
			CHANNELS 3 Zrotation Yrotation Xrotation
			JOINT rtibia
			{
				OFFSET -2.542530 -6.985550 0.000000
				CHANNELS 3 Zrotation Yrotation Xrotation
				JOINT rfoot
				{
					OFFSET -2.568260 -7.056230 0.000000
					CHANNELS 3 Zrotation Yrotation Xrotation
					JOINT rtoes
					{
						OFFSET -0.164730 -0.452590 2.363150
						CHANNELS 3 Zrotation Yrotation Xrotation
						End Site
						{
							OFFSET 0.000000 0.000000 0.000000
						}
					}
				}
			}
		}
	}
	JOINT lowerback
	{
		OFFSET 0.000000 0.000000 0.000000
		CHANNELS 3 Zrotation Yrotation Xrotation
		JOINT upperback
		{
			OFFSET 0.028270 2.035590 -0.193380
			CHANNELS 3 Zrotation Yrotation Xrotation
			JOINT thorax
			{
				OFFSET 0.056720 2.048850 -0.042750
				CHANNELS 3 Zrotation Yrotation Xrotation
				JOINT lowerneck
				{
					OFFSET 0.000000 0.000000 0.000000
					CHANNELS 3 Zrotation Yrotation Xrotation
					JOINT upperneck
					{
						OFFSET -0.054170 1.746240 0.172020
						CHANNELS 3 Zrotation Yrotation Xrotation
						JOINT head
						{
							OFFSET 0.104070 1.761360 -0.123970
							CHANNELS 3 Zrotation Yrotation Xrotation
							End Site
							{
								OFFSET 0.000000 0.000000 0.000000
							}
						}
					}
				}
				JOINT lclavicle
				{
					OFFSET 0.000000 0.000000 0.000000
					CHANNELS 3 Zrotation Yrotation Xrotation
					JOINT lhumerus
					{
						OFFSET 3.362410 1.200890 -0.311210
						CHANNELS 3 Zrotation Yrotation Xrotation
						JOINT lradius
						{
							OFFSET 4.983000 -0.000000 -0.000000
							CHANNELS 3 Zrotation Yrotation Xrotation
							JOINT lwrist
							{
								OFFSET 3.483560 -0.000000 -0.000000
								CHANNELS 3 Zrotation Yrotation Xrotation
								JOINT lhand
								{
									OFFSET 0.000000 0.000000 0.000000
									CHANNELS 3 Zrotation Yrotation Xrotation
									JOINT lfingers
									{
										OFFSET 0.715260 -0.000000 -0.000000
										CHANNELS 3 Zrotation Yrotation Xrotation
										End Site
										{
											OFFSET 0.000000 0.000000 0.000000
										}
									}
								}
								JOINT lthumb
								{
									OFFSET 0.000000 0.000000 0.000000
									CHANNELS 3 Zrotation Yrotation Xrotation
									End Site
									{
										OFFSET 0.000000 0.000000 0.000000
									}
								}
							}
						}
					}
				}
				JOINT rclavicle
				{
					OFFSET 0.000000 0.000000 0.000000
					CHANNELS 3 Zrotation Yrotation Xrotation
					JOINT rhumerus
					{
						OFFSET -3.136600 1.374050 -0.404650
						CHANNELS 3 Zrotation Yrotation Xrotation
						JOINT rradius
						{
							OFFSET -5.241900 -0.000000 -0.000000
							CHANNELS 3 Zrotation Yrotation Xrotation
							JOINT rwrist
							{
								OFFSET -3.444170 -0.000000 -0.000000
								CHANNELS 3 Zrotation Yrotation Xrotation
								JOINT rhand
								{
									OFFSET 0.000000 0.000000 0.000000
									CHANNELS 3 Zrotation Yrotation Xrotation
									JOINT rfingers
									{
										OFFSET -0.622530 -0.000000 -0.000000
										CHANNELS 3 Zrotation Yrotation Xrotation
										End Site
										{
											OFFSET 0.000000 0.000000 0.000000
										}
									}
								}
								JOINT rthumb
								{
									OFFSET 0.000000 0.000000 0.000000
									CHANNELS 3 Zrotation Yrotation Xrotation
									End Site
									{
										OFFSET 0.000000 0.000000 0.000000
									}
								}
							}
						}
					}
				}
			}
		}
	}
}
MOTION
Frames: 4
Frame Time: 0.008333
0.596591 17.585177 3.715881 -158.606720 -43.152798 162.749092 -4.788485 -4.622055 -3.689741 1.951212 -8.190271 -2.832899 1.544590 8.754876 18.964153 -0.894254 -19.728500 12.289903 0.065100 1.646300 4.529200 10.997256 -0.046882 4.095574 -9.682647 11.890740 -102.310795 -31.354666 -10.613103 130.121607 -2.706440 9.118965 16.541392 -1.540800 7.835900 -22.216800 -3.980930 -1.547578 40.812589 1.194576 -8.317124 -0.870795 -2.416184 -5.247251 6.041515 -10.161094 -7.751224 -15.128616 27.956021 -15.148098 8.434682 8.315600 -6.911800 6.213800 -6.722807 -3.933463 4.569408 -164.424212 -75.847519 133.701655 107.780876 -57.307096 -72.408704 -0.932254 3.118195 4.240924 43.024895 -12.913567 -15.723800 -7.125000 0.000000 0.000000 10.550200 7.469000 -9.251600 7.245424 3.472335 2.709506 75.829910 -24.192682 26.538211 -16.765478 36.501701 -4.126231 -0.262991 -1.600187 15.212991 -10.581503 10.557330 -2.296900 7.125000 0.000000 0.000000 11.436600 -17.721900 7.565300 
0.616656 17.595210 3.721166 -157.858014 -43.404889 162.145679 -4.824911 -4.693401 -3.719844 2.491938 -8.340728 -2.648402 1.503262 8.660304 18.675178 -0.878906 -19.697746 12.613986 0.073300 1.746100 4.804500 11.014851 -0.017537 4.084110 -9.605825 11.911300 -102.917612 -31.348176 -10.624581 130.080870 -2.698138 9.076081 16.512277 -1.606100 7.992300 -22.690700 -3.621711 -1.560195 41.324027 1.222749 -8.285294 -0.801287 -2.432148 -5.234280 6.044874 -10.265267 -7.672358 -14.672967 28.345687 -15.118868 8.031791 8.514000 -6.974900 6.033800 -6.747925 -3.996452 4.502724 -165.739471 -75.625139 135.526476 107.853914 -57.281998 -72.426234 -0.979843 3.113701 3.399783 43.182846 -12.715495 -15.658900 -7.125000 0.000000 0.000000 10.687000 7.640300 -9.339400 7.300312 3.460242 2.738783 75.758741 -24.715735 26.670032 -16.800151 36.532074 -4.143602 -0.259941 -1.610313 14.826991 -10.725497 10.471427 -2.313300 7.125000 0.000000 0.000000 11.343400 -17.788700 7.484100 
0.635557 17.602913 3.726451 -157.168918 -43.608222 161.633394 -4.859772 -4.748783 -3.743825 3.002864 -8.536652 -2.545532 1.473883 8.595441 18.487555 -0.863310 -19.632694 12.834510 0.081900 1.845500 5.078800 11.020542 0.009836 4.069029 -9.486280 12.024711 -103.493593 -31.334923 -10.633811 130.013852 -2.685150 9.077041 16.412658 -1.689700 8.187400 -23.284700 -3.305386 -1.559018 41.763333 1.249140 -8.234149 -0.737994 -2.441902 -5.214994 6.062761 -10.292374 -7.605575 -14.316745 28.658854 -15.097465 7.715457 8.658100 -7.026400 5.887600 -6.763766 -4.044053 4.448857 -166.854420 -75.380669 137.041143 107.878050 -57.269932 -72.402358 -1.015467 3.113371 2.692312 43.305532 -12.635482 -15.675600 -7.125000 0.000000 0.000000 10.773800 7.672000 -9.411400 7.349395 3.453238 2.762856 75.717036 -25.175751 26.717468 -16.747342 36.486719 -4.136713 -0.261385 -1.616008 14.583398 -10.910633 10.423062 -2.344300 7.125000 0.000000 0.000000 11.221500 -17.819000 7.392800 
0.653741 17.603988 3.731736 -156.512959 -43.762351 161.142971 -4.896228 -4.793663 -3.762200 3.508706 -8.698737 -2.539646 1.457626 8.574425 18.439711 -0.870962 -19.667426 12.971537 0.085100 1.881700 5.178700 11.017878 0.028755 4.049598 -9.282915 12.186034 -103.955236 -31.307194 -10.651589 129.885032 -2.669163 9.095727 16.282853 -1.757300 8.341100 -23.754900 -2.984230 -1.546132 42.178234 1.268514 -8.167528 -0.680208 -2.492766 -5.182162 6.074336 -10.257808 -7.540983 -14.037894 28.976889 -15.092925 7.457768 8.783100 -7.076100 5.778700 -6.773558 -4.083346 4.406368 -167.797201 -75.148623 138.358110 107.854250 -57.269361 -72.334017 -1.043754 3.113982 2.129561 43.447246 -12.575484 -15.718900 -7.125000 0.000000 0.000000 10.868400 7.673100 -9.496900 7.387925 3.458214 2.780813 75.737056 -25.595605 26.737157 -16.636774 36.394427 -4.110729 -0.262687 -1.623095 14.418167 -11.106981 10.341906 -2.372000 7.125000 0.000000 0.000000 11.090900 -17.880300 7.288100 
